<svg id="Default" xmlns="http://www.w3.org/2000/svg" xmlns:xlink="http://www.w3.org/1999/xlink" viewBox="0 0 500 300"><defs><style>.cls-1{fill:none;}.cls-2{clip-path:url(#clip-path);}.cls-3{fill:#661124;}</style><clipPath id="clip-path"><rect class="cls-1" width="500" height="300"/></clipPath></defs><title>M-Standard</title><g class="cls-2"><g class="cls-2"><path class="cls-3" d="M298.84,137l.25,0a1.37,1.37,0,0,0,.68-.22.68.68,0,0,0,.23-.57V129a.69.69,0,0,0-.23-.57,1.48,1.48,0,0,0-.68-.21l-.25,0v-.49h3.69v.49l-.25,0a1.43,1.43,0,0,0-.67.21.67.67,0,0,0-.24.57v7.18a.56.56,0,0,0,.23.53,1.34,1.34,0,0,0,.68.13h1a3.47,3.47,0,0,0,1.35-.21,1.73,1.73,0,0,0,.78-.69,6.46,6.46,0,0,0,.6-1.42h.51l-.22,3h-7.41Z"/><path class="cls-3" d="M313.52,135.67a3.54,3.54,0,0,1-1.21,1.49,2.89,2.89,0,0,1-1.66.49,3,3,0,0,1-1.58-.42A2.94,2.94,0,0,1,308,136a4.06,4.06,0,0,1-.39-1.82,4.3,4.3,0,0,1,.44-2,3.41,3.41,0,0,1,1.16-1.32,2.66,2.66,0,0,1,1.49-.46,2.88,2.88,0,0,1,1.5.38,2.38,2.38,0,0,1,.94,1,3,3,0,0,1,.31,1.36c0,.19,0,.32,0,.4h-4.6a3.23,3.23,0,0,0,.7,2.24,2.22,2.22,0,0,0,1.68.74,2.18,2.18,0,0,0,1.09-.27,3.3,3.3,0,0,0,.91-.83Zm-4.07-4.14a2.51,2.51,0,0,0-.6,1.44h3.23a2.78,2.78,0,0,0-.46-1.43,1.27,1.27,0,0,0-1.07-.53,1.49,1.49,0,0,0-1.1.52"/><path class="cls-3" d="M321.18,130.61v.46a1.21,1.21,0,0,0-.7.4,5,5,0,0,0-.62,1.14l-2.14,4.94h-.44l-2.1-4.92c-.19-.42-.33-.74-.43-.93a1.67,1.67,0,0,0-.32-.44.88.88,0,0,0-.44-.19v-.46h3.12v.46l-.27,0a1.25,1.25,0,0,0-.51.18.4.4,0,0,0-.16.34,2.11,2.11,0,0,0,.21.74l1.41,3.42,1.37-3.34a2.8,2.8,0,0,0,.23-.82.45.45,0,0,0-.14-.35.81.81,0,0,0-.44-.17l-.26,0v-.46Z"/><path class="cls-3" d="M321.92,137l.25,0a.76.76,0,0,0,.52-.2.86.86,0,0,0,.15-.58v-3.9a1,1,0,0,0-.07-.42.54.54,0,0,0-.26-.23,4.53,4.53,0,0,0-.59-.21v-.37l2.11-.63h.12v5.76a.86.86,0,0,0,.15.58.76.76,0,0,0,.52.2l.25,0v.46h-3.15Zm.91-8.08a.79.79,0,0,1-.26-.6.83.83,0,0,1,.26-.6.89.89,0,0,1,.62-.25.91.91,0,0,1,.63.25.82.82,0,0,1,.25.6.8.8,0,0,1-.27.6.87.87,0,0,1-.61.26.85.85,0,0,1-.62-.26"/><path class="cls-3" d="M327.19,137.23a1.64,1.64,0,0,1-.44-1.24v-4.66h-1.09v-.43a3.09,3.09,0,0,0,1.85-2.05h.56v1.76H330l-.18.72h-1.76v4.41a.88.88,0,0,0,1,1,2.52,2.52,0,0,0,1-.22v.42a2.47,2.47,0,0,1-.79.52,2.37,2.37,0,0,1-.9.18,1.71,1.71,0,0,1-1.23-.41"/><path class="cls-3" d="M335.52,130.62a1.24,1.24,0,0,1,.48.35,1.49,1.49,0,0,1-.32.64.68.68,0,0,1-.54.27,1.35,1.35,0,0,1-.52-.13,1.67,1.67,0,0,0-.53-.12.82.82,0,0,0-.59.29,2.39,2.39,0,0,0-.42.76v3.53a.85.85,0,0,0,.09.44.54.54,0,0,0,.29.23,2.6,2.6,0,0,0,.66.11l.26,0v.46h-3.53V137l.25,0a.76.76,0,0,0,.52-.2.84.84,0,0,0,.15-.58v-3.9a1,1,0,0,0-.07-.42.54.54,0,0,0-.26-.23,4,4,0,0,0-.59-.21v-.37l2.07-.63H333v1.67a3.43,3.43,0,0,1,.7-1.16,1.44,1.44,0,0,1,1.09-.49,1.65,1.65,0,0,1,.69.15"/><path class="cls-3" d="M336.53,137l.26,0a.76.76,0,0,0,.52-.2.86.86,0,0,0,.15-.58v-3.9a1.14,1.14,0,0,0-.07-.42.59.59,0,0,0-.26-.23,4.26,4.26,0,0,0-.6-.21v-.37l2.12-.63h.12v5.76a.86.86,0,0,0,.15.58.76.76,0,0,0,.52.2l.25,0v.46h-3.16Zm.92-8.08a.79.79,0,0,1-.26-.6.83.83,0,0,1,.26-.6.89.89,0,0,1,1.24,0,.79.79,0,0,1,.26.6.8.8,0,0,1-.27.6.87.87,0,0,1-.61.26.85.85,0,0,1-.62-.26"/><path class="cls-3" d="M346.67,136.79a1.26,1.26,0,0,0,.6.23v.46h-3.06V137l.3,0c.24,0,.35-.13.35-.29a1.06,1.06,0,0,0-.28-.59l-1.13-1.55-1.1,1.55a1,1,0,0,0-.23.52c0,.18.17.31.51.36l.28,0v.46h-2.69V137a1.93,1.93,0,0,0,.67-.31,2.93,2.93,0,0,0,.69-.71l1.43-1.94-1.49-2a4.1,4.1,0,0,0-.63-.73,1.12,1.12,0,0,0-.53-.23v-.46h3v.46l-.28,0c-.3.06-.45.15-.45.29a1.18,1.18,0,0,0,.31.59l1,1.36,1-1.36a1.15,1.15,0,0,0,.28-.59c0-.15-.13-.25-.39-.29l-.3,0v-.46h2.59v.46a1.46,1.46,0,0,0-.72.28,4.44,4.44,0,0,0-.69.75l-1.3,1.72,1.62,2.24a3.61,3.61,0,0,0,.66.73"/><path class="cls-3" d="M298.91,153.77l.25,0a1.37,1.37,0,0,0,.68-.22.67.67,0,0,0,.23-.56v-7.19a.66.66,0,0,0-.23-.56,1.37,1.37,0,0,0-.68-.22l-.25,0v-.49h3.69V145l-.25,0a1.33,1.33,0,0,0-.67.22.63.63,0,0,0-.24.56V153a.65.65,0,0,0,.24.56,1.33,1.33,0,0,0,.67.22l.25,0v.49h-3.69Z"/><path class="cls-3" d="M311.18,153.79v.46H308v-.46l.25,0a.81.81,0,0,0,.52-.21A.84.84,0,0,0,309,153v-3.44a1.52,1.52,0,0,0-.36-1.09,1.26,1.26,0,0,0-1-.39,2.33,2.33,0,0,0-.92.19,2.73,2.73,0,0,0-.75.5V153a.84.84,0,0,0,.15.58.81.81,0,0,0,.52.21l.26,0v.46h-3.16v-.46l.25,0a.81.81,0,0,0,.52-.21.84.84,0,0,0,.15-.58v-3.9a1,1,0,0,0-.07-.42.54.54,0,0,0-.26-.23,4.53,4.53,0,0,0-.59-.21v-.37l2.07-.63h.12v1.17a2.77,2.77,0,0,1,1-.85,2.62,2.62,0,0,1,1.35-.36,1.9,1.9,0,0,1,1.54.6,2.13,2.13,0,0,1,.51,1.42V153a.84.84,0,0,0,.15.58.81.81,0,0,0,.52.21Z"/><path class="cls-3" d="M313,154a1.64,1.64,0,0,1-.43-1.24v-4.65h-1.1v-.44a3.09,3.09,0,0,0,1.85-2h.56v1.76h1.94l-.18.73h-1.76v4.4a.88.88,0,0,0,1,1,2.52,2.52,0,0,0,1-.22v.42a2.39,2.39,0,0,1-1.69.7A1.74,1.74,0,0,1,313,154"/><path class="cls-3" d="M322.42,152.44a3.54,3.54,0,0,1-1.21,1.49,2.89,2.89,0,0,1-1.66.49A3,3,0,0,1,318,154a2.88,2.88,0,0,1-1.09-1.22,3.93,3.93,0,0,1-.4-1.82,4.33,4.33,0,0,1,.44-2,3.41,3.41,0,0,1,1.16-1.32,2.66,2.66,0,0,1,1.49-.46,2.88,2.88,0,0,1,1.5.38,2.44,2.44,0,0,1,.94,1,3,3,0,0,1,.32,1.36,3.66,3.66,0,0,1,0,.41h-4.6a3.27,3.27,0,0,0,.7,2.23,2.3,2.3,0,0,0,2.77.47,3.17,3.17,0,0,0,.91-.83Zm-4.07-4.14a2.72,2.72,0,0,0-.6,1.44H321a2.72,2.72,0,0,0-.46-1.42,1.25,1.25,0,0,0-1.06-.54,1.49,1.49,0,0,0-1.11.52"/><path class="cls-3" d="M328,147.39a1.51,1.51,0,0,1,.49.35,1.74,1.74,0,0,1-.33.65.7.7,0,0,1-.54.26,1.52,1.52,0,0,1-.52-.12,1.48,1.48,0,0,0-.53-.13.82.82,0,0,0-.59.29,2.39,2.39,0,0,0-.42.76V153a.83.83,0,0,0,.09.44.5.5,0,0,0,.29.23,3,3,0,0,0,.66.12l.26,0v.47h-3.53v-.47l.25,0a.79.79,0,0,0,.52-.21.84.84,0,0,0,.15-.58v-3.9a1,1,0,0,0-.07-.42.54.54,0,0,0-.26-.23,4,4,0,0,0-.59-.21v-.37l2.07-.62h.12v1.66a3.29,3.29,0,0,1,.7-1.15,1.42,1.42,0,0,1,1.09-.5,1.65,1.65,0,0,1,.69.15"/><path class="cls-3" d="M329,153.79l.25,0a.81.81,0,0,0,.52-.21.84.84,0,0,0,.15-.58v-3.9a1,1,0,0,0-.07-.42.54.54,0,0,0-.26-.23,4.53,4.53,0,0,0-.59-.21v-.37l2.11-.62h.12V153a.84.84,0,0,0,.15.58.81.81,0,0,0,.52.21l.25,0v.46H329Zm.91-8.07a.83.83,0,0,1,0-1.21.89.89,0,0,1,.62-.25.91.91,0,0,1,.63.25.82.82,0,0,1,.25.6.8.8,0,0,1-.27.6.87.87,0,0,1-.61.26.89.89,0,0,1-.62-.25"/><path class="cls-3" d="M334.71,154a3.34,3.34,0,0,1-1.26-1.27,3.7,3.7,0,0,1-.46-1.87,3.76,3.76,0,0,1,.46-1.87,3.42,3.42,0,0,1,1.26-1.3,3.32,3.32,0,0,1,1.71-.46,3.42,3.42,0,0,1,1.72.45,3.36,3.36,0,0,1,1.25,1.26,3.74,3.74,0,0,1,.47,1.87,3.8,3.8,0,0,1-.47,1.88,3.44,3.44,0,0,1-1.25,1.29,3.33,3.33,0,0,1-1.72.46,3.51,3.51,0,0,1-1.71-.44m3.21-.9a3.63,3.63,0,0,0,.49-2,5.51,5.51,0,0,0-.25-1.69,2.73,2.73,0,0,0-.73-1.18,1.66,1.66,0,0,0-2.5.32,3.6,3.6,0,0,0-.49,2,5.29,5.29,0,0,0,.24,1.62,2.89,2.89,0,0,0,.72,1.21,1.52,1.52,0,0,0,1.11.47,1.6,1.6,0,0,0,1.41-.76"/><path class="cls-3" d="M345.49,147.39a1.36,1.36,0,0,1,.48.35,1.72,1.72,0,0,1-.32.65.71.71,0,0,1-.55.26,1.52,1.52,0,0,1-.52-.12,1.48,1.48,0,0,0-.53-.13.78.78,0,0,0-.58.29,2.06,2.06,0,0,0-.42.76V153a1,1,0,0,0,.08.44.55.55,0,0,0,.3.23,2.79,2.79,0,0,0,.65.12l.27,0v.47h-3.54v-.47l.25,0a.84.84,0,0,0,.53-.21.91.91,0,0,0,.14-.58v-3.9a1,1,0,0,0-.07-.42.52.52,0,0,0-.25-.23,4.79,4.79,0,0,0-.6-.21v-.37l2.07-.62H343v1.66a3.27,3.27,0,0,1,.69-1.15,1.43,1.43,0,0,1,1.09-.5,1.66,1.66,0,0,1,.7.15"/><path class="cls-3" d="M349.85,153.77l.26,0a1.36,1.36,0,0,0,.67-.22A.67.67,0,0,0,351,153v-7.19a.66.66,0,0,0-.23-.56,1.36,1.36,0,0,0-.67-.22l-.26,0v-.49h4.39a5.26,5.26,0,0,1,2.51.59,4.15,4.15,0,0,1,1.71,1.69,5.74,5.74,0,0,1,0,5.19,4.26,4.26,0,0,1-1.71,1.71,5.15,5.15,0,0,1-2.51.6h-4.39Zm4.29-.16a3.12,3.12,0,0,0,2.95-1.86,5,5,0,0,0,.42-2.11,6.07,6.07,0,0,0-.42-2.32,3.6,3.6,0,0,0-1.22-1.62,3.19,3.19,0,0,0-1.92-.59h-1.57V153a.55.55,0,0,0,.23.52,1.34,1.34,0,0,0,.68.13Z"/><path class="cls-3" d="M366.23,152.44a3.46,3.46,0,0,1-1.21,1.49,2.86,2.86,0,0,1-1.65.49,3,3,0,0,1-1.58-.42,2.88,2.88,0,0,1-1.09-1.22,4.06,4.06,0,0,1-.39-1.82,4.2,4.2,0,0,1,.44-2,3.39,3.39,0,0,1,1.15-1.32,2.7,2.7,0,0,1,1.5-.46,2.87,2.87,0,0,1,1.49.38,2.38,2.38,0,0,1,.94,1,3,3,0,0,1,.32,1.36,3.66,3.66,0,0,1,0,.41h-4.59a3.22,3.22,0,0,0,.7,2.23,2.28,2.28,0,0,0,2.76.47,3.17,3.17,0,0,0,.91-.83Zm-4.06-4.14a2.57,2.57,0,0,0-.6,1.44h3.22a2.63,2.63,0,0,0-.46-1.42,1.24,1.24,0,0,0-1.06-.54,1.46,1.46,0,0,0-1.1.52"/><path class="cls-3" d="M368.47,154.26a4.69,4.69,0,0,1-1.12-.41l.06-2h.5a3.36,3.36,0,0,0,.71,1.48,1.71,1.71,0,0,0,1.32.56,1.41,1.41,0,0,0,1-.33,1.09,1.09,0,0,0,.36-.86.88.88,0,0,0-.31-.73,4.24,4.24,0,0,0-1-.53l-.48-.18a7.87,7.87,0,0,1-1.14-.53,1.85,1.85,0,0,1-.65-.58,1.5,1.5,0,0,1-.23-.88,1.71,1.71,0,0,1,.34-1,2.36,2.36,0,0,1,.91-.73,2.93,2.93,0,0,1,1.25-.27,5.73,5.73,0,0,1,2.11.39l0,1.74h-.49c-.26-1-.84-1.54-1.72-1.54a1.38,1.38,0,0,0-.89.29.94.94,0,0,0-.36.76.82.82,0,0,0,.29.66,3.68,3.68,0,0,0,1.06.55l.46.19a5.11,5.11,0,0,1,1.61.88,1.57,1.57,0,0,1,.47,1.21,1.85,1.85,0,0,1-.72,1.53,2.84,2.84,0,0,1-1.85.58,5.72,5.72,0,0,1-1.4-.16"/><path class="cls-3" d="M373.43,153.79l.25,0a.84.84,0,0,0,.53-.21.91.91,0,0,0,.14-.58v-3.9a1,1,0,0,0-.07-.42.5.5,0,0,0-.26-.23,4,4,0,0,0-.59-.21v-.37l2.11-.62h.13V153a.91.91,0,0,0,.14.58.84.84,0,0,0,.53.21l.25,0v.46h-3.16Zm.92-8.07a.83.83,0,0,1,0-1.21.89.89,0,0,1,1.24,0,.83.83,0,0,1,.26.6.8.8,0,0,1-.27.6.9.9,0,0,1-.61.26.89.89,0,0,1-.62-.25"/><path class="cls-3" d="M383.6,148.23h-1.35a1.87,1.87,0,0,1,.57,1.37,2.05,2.05,0,0,1-.37,1.2,2.7,2.7,0,0,1-1,.85,2.85,2.85,0,0,1-1.32.31,2.91,2.91,0,0,1-1-.19,1.14,1.14,0,0,0-.39.3.74.74,0,0,0-.15.45.52.52,0,0,0,.34.5,2.89,2.89,0,0,0,1.15.16h1c1.68,0,2.51.51,2.51,1.52a2,2,0,0,1-.46,1.25,3.41,3.41,0,0,1-1.33,1,4.7,4.7,0,0,1-2,.38,3.94,3.94,0,0,1-2.05-.47,1.43,1.43,0,0,1-.78-1.25,1.31,1.31,0,0,1,.35-.88,2.51,2.51,0,0,1,.94-.63,1.05,1.05,0,0,1-.77-1,1.18,1.18,0,0,1,.34-.82,2.86,2.86,0,0,1,.93-.63,2.55,2.55,0,0,1-1-.85,2.15,2.15,0,0,1-.35-1.19,2.12,2.12,0,0,1,.36-1.2,2.45,2.45,0,0,1,1-.86,2.69,2.69,0,0,1,1.27-.32,3,3,0,0,1,1.34.3h2.35Zm-3.75,6.09a5.33,5.33,0,0,1-1.25-.13,1.17,1.17,0,0,0-.45.95,1.3,1.3,0,0,0,.65,1.14,2.92,2.92,0,0,0,1.63.42,2.53,2.53,0,0,0,1.55-.42,1.27,1.27,0,0,0,.55-1,.79.79,0,0,0-.35-.69,2.41,2.41,0,0,0-1.29-.25Zm1.3-3.38a2.11,2.11,0,0,0,.34-1.24,2.29,2.29,0,0,0-.4-1.39,1.21,1.21,0,0,0-1-.55,1,1,0,0,0-.9.49,2.1,2.1,0,0,0-.34,1.25,2.29,2.29,0,0,0,.39,1.37,1.21,1.21,0,0,0,1,.55,1.07,1.07,0,0,0,.91-.48"/><path class="cls-3" d="M392,153.79v.46h-3.16v-.46l.25,0a.79.79,0,0,0,.52-.21.84.84,0,0,0,.15-.58v-3.44a1.52,1.52,0,0,0-.36-1.09,1.24,1.24,0,0,0-1-.39,2.37,2.37,0,0,0-.92.19,2.54,2.54,0,0,0-.74.5V153a.85.85,0,0,0,.14.58.82.82,0,0,0,.53.21l.25,0v.46H384.5v-.46l.25,0a.84.84,0,0,0,.53-.21.91.91,0,0,0,.14-.58v-3.9a1,1,0,0,0-.07-.42.5.5,0,0,0-.26-.23,4,4,0,0,0-.59-.21v-.37l2.07-.63h.12v1.17a3,3,0,0,1,1-.85,2.65,2.65,0,0,1,1.35-.36,1.9,1.9,0,0,1,1.54.6,2.13,2.13,0,0,1,.51,1.42V153a.84.84,0,0,0,.15.58.81.81,0,0,0,.52.21Z"/><path class="cls-3" d="M300.51,171a5.9,5.9,0,0,1-1.44-.57l.08-2.77h.52a4.38,4.38,0,0,0,.93,2.18,2.4,2.4,0,0,0,1.89.8,2,2,0,0,0,1.45-.54,1.89,1.89,0,0,0,.56-1.42,1.44,1.44,0,0,0-.46-1.12,5,5,0,0,0-1.51-.83l-.63-.25a10.28,10.28,0,0,1-1.48-.72,2.8,2.8,0,0,1-.9-.84,2,2,0,0,1-.33-1.18,2.42,2.42,0,0,1,.41-1.39,2.83,2.83,0,0,1,1.14-1,3.94,3.94,0,0,1,1.64-.34,6.46,6.46,0,0,1,2.77.56l-.06,2.41h-.52c-.3-1.57-1.08-2.35-2.33-2.35a1.87,1.87,0,0,0-1.3.47,1.52,1.52,0,0,0-.52,1.16,1.35,1.35,0,0,0,.45,1.06,5.52,5.52,0,0,0,1.55.84l.63.25a6.51,6.51,0,0,1,2.08,1.19,2.16,2.16,0,0,1,.63,1.62,2.76,2.76,0,0,1-.43,1.53,2.93,2.93,0,0,1-1.21,1.07,3.9,3.9,0,0,1-1.77.39,6.64,6.64,0,0,1-1.84-.25"/><path class="cls-3" d="M308.1,170.77a1.64,1.64,0,0,1-.44-1.24v-4.65h-1.09v-.44a3.09,3.09,0,0,0,1.85-2.05H309v1.76h1.94l-.18.73H309v4.4a.88.88,0,0,0,1,1,2.52,2.52,0,0,0,1-.22v.42a2.47,2.47,0,0,1-.79.52,2.37,2.37,0,0,1-.9.18,1.71,1.71,0,0,1-1.23-.41"/><path class="cls-3" d="M318.21,170.13a1.78,1.78,0,0,0,.74.27v.39l-1.85.33a3.13,3.13,0,0,1-.34-1.07,2.51,2.51,0,0,1-.85.79,2.41,2.41,0,0,1-1.25.34,2.19,2.19,0,0,1-1.64-.58,2.27,2.27,0,0,1-.56-1.66v-3.39a1.06,1.06,0,0,0-.07-.42.45.45,0,0,0-.26-.22c-.12,0-.32-.11-.6-.19v-.36l2.11-.36h.13v4.76a1.69,1.69,0,0,0,.36,1.14,1.4,1.4,0,0,0,1.11.43,2,2,0,0,0,1.49-.63c0-.1,0-.24,0-.42v-3.73a.91.91,0,0,0-.07-.42.46.46,0,0,0-.25-.22c-.12,0-.32-.11-.6-.19v-.36l2.11-.36H318v5.52a.79.79,0,0,0,.18.61"/><path class="cls-3" d="M326.19,170.13a1.78,1.78,0,0,0,.74.27v.39l-1.85.33a3.27,3.27,0,0,1-.31-1,2.33,2.33,0,0,1-.83.71,2.49,2.49,0,0,1-1.25.3,2.7,2.7,0,0,1-2.51-1.6,4.11,4.11,0,0,1-.37-1.8,4,4,0,0,1,.46-2,3.34,3.34,0,0,1,1.28-1.33,3.73,3.73,0,0,1,1.9-.48,3.65,3.65,0,0,1,1.25.19v-1.65a1.14,1.14,0,0,0-.07-.42.54.54,0,0,0-.26-.23,4.53,4.53,0,0,0-.59-.21v-.37l2.11-.63H326v8.84a.79.79,0,0,0,.18.61m-1.46-.32q0-.42,0-.69v-3.84a1.68,1.68,0,0,0-1.44-.68,1.75,1.75,0,0,0-1.49.73,3.68,3.68,0,0,0-.54,2.19,3.3,3.3,0,0,0,.58,2.1,1.84,1.84,0,0,0,1.55.73,2,2,0,0,0,1.37-.54"/><path class="cls-3" d="M327.77,170.56l.25,0a.82.82,0,0,0,.53-.21.85.85,0,0,0,.14-.58v-3.9a1,1,0,0,0-.07-.42.57.57,0,0,0-.25-.23,4.79,4.79,0,0,0-.6-.21v-.37l2.11-.62H330v5.75a.84.84,0,0,0,.15.58.79.79,0,0,0,.52.21l.25,0V171h-3.16Zm.92-8.07a.83.83,0,0,1,0-1.21.89.89,0,0,1,1.24,0,.83.83,0,0,1,.26.61.79.79,0,0,1-.27.59.87.87,0,0,1-1.23,0"/><path class="cls-3" d="M333.47,170.75a3.27,3.27,0,0,1-1.26-1.27,3.7,3.7,0,0,1-.47-1.86,3.77,3.77,0,0,1,.47-1.88,3.37,3.37,0,0,1,3-1.76,3.39,3.39,0,0,1,1.71.45,3.31,3.31,0,0,1,1.26,1.26,3.74,3.74,0,0,1,.47,1.87,3.8,3.8,0,0,1-.47,1.88,3.4,3.4,0,0,1-1.26,1.29,3.3,3.3,0,0,1-1.71.46,3.46,3.46,0,0,1-1.71-.44m3.2-.9a3.54,3.54,0,0,0,.49-2,5.22,5.22,0,0,0-.25-1.69,2.72,2.72,0,0,0-.72-1.18,1.57,1.57,0,0,0-1.09-.43,1.6,1.6,0,0,0-1.42.75,3.69,3.69,0,0,0-.48,2,5.29,5.29,0,0,0,.24,1.62,3,3,0,0,0,.71,1.22,1.55,1.55,0,0,0,1.11.46,1.58,1.58,0,0,0,1.41-.76"/><polygon class="cls-3" points="257.91 148.78 258.02 148.88 222.98 184.16 207.08 168.38 226.44 148.89 206.95 129.53 222.74 113.63 258.02 148.67 257.91 148.78"/><polygon class="cls-3" points="257.92 148.78 277.41 168.13 261.62 184.03 226.34 148.99 226.45 148.89 226.34 148.78 261.38 113.5 277.28 129.29 257.92 148.78"/><polygon class="cls-3" points="140.18 149.5 160.02 169.21 143.94 185.39 108.02 149.72 108.13 149.62 108.02 149.51 143.7 113.59 159.88 129.66 140.18 149.5"/><polygon class="cls-3" points="183.5 153.14 203.94 132.55 220.74 149.23 183.72 186.5 183.61 186.39 183.5 186.5 146.23 149.49 162.91 132.69 183.5 153.14"/></g></g></svg>