<svg id="Default" xmlns="http://www.w3.org/2000/svg" xmlns:xlink="http://www.w3.org/1999/xlink" viewBox="0 0 500 300"><defs><style>.cls-1{fill:none;}.cls-2{clip-path:url(#clip-path);}.cls-3{fill:#661124;}</style><clipPath id="clip-path"><rect class="cls-1" width="500" height="300"/></clipPath></defs><title>M-Standard</title><g class="cls-2"><polygon class="cls-3" points="315.2 148.78 315.3 148.88 280.26 184.16 264.37 168.38 283.72 148.89 264.23 129.53 280.02 113.63 315.3 148.67 315.2 148.78"/><polygon class="cls-3" points="315.21 148.78 334.69 168.13 318.91 184.03 283.63 148.99 283.73 148.89 283.62 148.78 318.66 113.5 334.56 129.29 315.21 148.78"/><polygon class="cls-3" points="197.46 149.5 217.3 169.21 201.23 185.39 165.31 149.72 165.42 149.62 165.31 149.51 200.98 113.59 217.16 129.66 197.46 149.5"/><polygon class="cls-3" points="240.78 153.14 261.23 132.55 278.02 149.23 241.01 186.5 240.9 186.39 240.78 186.5 203.51 149.49 220.19 132.69 240.78 153.14"/></g></svg>